<svg width="40" height="41" viewBox="0 0 40 41" fill="none" xmlns="http://www.w3.org/2000/svg">
<path d="M31.819 29.9032V38.371C31.819 38.9919 31.3437 39.5 30.7628 39.5H8.05613C7.47526 39.5 7 38.9919 7 38.371V5.62903C7 5.00806 7.47526 4.5 8.05613 4.5H21.733L31.819 14.7177V29.9032Z" fill="white" stroke="#979797"/>
<path d="M32 15.1694H23.0229C22.4421 15.1694 21.9668 14.6613 21.9668 14.0403V4.5" stroke="#979797"/>
<path d="M35.819 26.9032V35.371C35.819 35.9919 35.3437 36.5 34.7628 36.5H12.0561C11.4753 36.5 11 35.9919 11 35.371V2.62903C11 2.00806 11.4753 1.5 12.0561 1.5H25.733L35.819 11.7177V26.9032Z" fill="white" stroke="#979797"/>
<path d="M36 12.1694H27.0229C26.4421 12.1694 25.9668 11.6613 25.9668 11.0403V1.5" stroke="#979797"/>
</svg>
